<svg width="24" height="24" viewBox="0 0 24 24" fill="none" xmlns="http://www.w3.org/2000/svg">
<path d="M17.5015 9.16093L11.9998 3.58496L6.49852 9.16093H0V20.4154H24V19.8589V9.16093H17.5015ZM1.11309 10.274H6.96375L11.9998 5.1698L17.0363 10.274H22.8869V19.3023H13.1919V15.6316C13.1919 14.9732 12.6582 14.4395 11.9998 14.4395C11.3415 14.4395 10.8077 14.9732 10.8077 15.6316V19.3023H1.11309V10.274Z" fill="#00C152"/>
<path d="M4.15391 14.7192H2.91406V17.0078H4.15391V14.7192Z" fill="#00C152"/>
<path d="M8.02119 14.7192H6.78125V17.0078H8.02119V14.7192Z" fill="#00C152"/>
<path d="M17.2184 14.7192H15.9785V17.0078H17.2184V14.7192Z" fill="#00C152"/>
<path d="M21.0866 14.7192H19.8467V17.0078H21.0866V14.7192Z" fill="#00C152"/>
<path d="M11.9995 12.1328C13.2814 12.1324 14.3199 11.0936 14.3203 9.81199C14.3199 8.52968 13.2815 7.49121 11.9995 7.49121C10.7176 7.49121 9.67909 8.52968 9.67871 9.81199C9.67909 11.0936 10.7176 12.1324 11.9995 12.1328ZM10.8831 8.69529C11.1701 8.4094 11.5621 8.23366 11.9995 8.23329C12.4368 8.23366 12.8289 8.4094 13.1159 8.69529C13.4021 8.98226 13.5779 9.37469 13.5782 9.81199C13.5779 10.249 13.4021 10.6414 13.1159 10.928C12.8289 11.2146 12.4365 11.3903 11.9995 11.3907C11.5625 11.3903 11.1701 11.2146 10.8831 10.928C10.5969 10.6414 10.4208 10.249 10.4208 9.81199C10.4212 9.37469 10.5969 8.9823 10.8831 8.69529Z" fill="#00C152"/>
<path d="M12.9098 9.62663H12.1855V8.72119H11.8145V9.99769H12.9098V9.62663Z" fill="#00C152"/>
</svg>
